<?xml version="1.0" standalone="no"?>
<!DOCTYPE svg PUBLIC "-//W3C//DTD SVG 20010904//EN"
 "http://www.w3.org/TR/2001/REC-SVG-20010904/DTD/svg10.dtd">
<svg version="1.0" xmlns="http://www.w3.org/2000/svg"
 width="474.000000pt" height="316.000000pt" viewBox="0 0 474.000000 316.000000"
 preserveAspectRatio="xMidYMid meet">

<g transform="translate(0.000000,316.000000) scale(0.100000,-0.100000)"
fill="#000000" stroke="none">
<path d="M0 2484 c0 -604 2 -677 16 -691 13 -14 17 -14 25 -2 5 8 9 19 9 25 0
7 7 15 16 18 14 5 15 14 9 49 -5 23 -9 87 -9 142 l-1 99 33 7 c28 6 33 4 37
-17 3 -13 7 -35 10 -48 4 -19 10 -23 26 -19 20 6 110 -32 117 -49 3 -7 106 -2
150 8 20 4 22 11 23 62 1 89 17 111 18 24 1 -78 3 -82 73 -96 58 -13 77 -57
53 -121 -5 -16 -5 -17 4 -5 8 11 11 11 11 2 0 -7 14 2 30 20 17 18 38 41 47
51 9 9 24 17 32 17 13 0 16 -14 16 -83 0 -77 -1 -82 -22 -85 -57 -8 -139 -167
-118 -231 3 -11 22 -26 41 -33 39 -14 39 -14 24 -172 -12 -127 -15 -133 -50
-141 -37 -8 -40 -35 -5 -35 19 0 25 -5 25 -20 0 -18 -5 -20 -40 -16 -22 2 -42
1 -44 -3 -4 -6 14 -11 57 -14 12 -1 17 -8 15 -21 -6 -40 -100 -38 -115 1 -15
39 -71 65 -96 45 -7 -6 -21 -6 -36 -1 -19 8 -22 14 -18 42 9 63 -20 81 -88 53
-31 -13 -36 -13 -44 1 -5 10 -5 29 0 47 6 22 5 36 -6 53 -17 26 -26 28 -42 12
-9 -9 -20 -9 -43 1 -29 12 -36 11 -86 -16 l-54 -29 0 -367 0 -368 31 0 c19 0
37 7 44 17 13 17 14 17 32 0 11 -9 33 -17 50 -17 37 0 69 -30 51 -48 -9 -9 -9
-12 1 -12 7 0 9 -5 6 -10 -9 -15 -43 -12 -71 6 -23 16 -26 16 -38 -1 -9 -13
-27 -18 -59 -19 l-47 -1 0 -247 0 -248 413 0 c228 0 417 3 420 7 8 8 166 7
175 -1 3 -3 54 -6 112 -6 84 0 110 3 120 15 12 14 15 14 36 0 25 -16 114 -21
114 -6 0 5 16 15 35 22 32 12 35 17 35 51 0 28 4 38 16 38 13 0 15 -9 12 -45
-2 -36 0 -46 14 -51 10 -3 18 -10 18 -15 0 -5 14 -9 30 -9 17 0 30 5 30 10 0
6 11 15 25 20 14 5 25 13 25 18 0 15 78 35 117 30 22 -3 59 -15 83 -27 50 -24
69 -26 106 -9 24 11 29 10 50 -15 21 -25 29 -27 99 -27 41 0 75 4 75 9 0 15
59 31 111 31 30 0 62 -8 84 -20 31 -17 54 -20 175 -20 94 0 147 4 161 13 17 9
23 9 26 0 4 -10 108 -13 474 -13 338 0 468 3 463 11 -3 6 -17 9 -30 6 -13 -2
-24 0 -24 5 0 5 -9 4 -20 -2 -23 -12 -61 3 -56 23 1 6 1 9 -1 5 -3 -5 -11 -8
-19 -8 -25 0 -15 35 15 53 24 14 38 16 72 8 32 -7 49 -6 70 5 16 8 35 14 44
14 9 0 39 19 66 42 37 31 49 48 49 69 0 24 -4 28 -32 31 -18 2 -32 8 -31 14 3
15 -47 5 -69 -13 -25 -22 -53 -13 -53 17 0 20 5 26 30 28 17 1 46 9 65 17 19
7 52 16 73 20 20 3 37 10 37 15 0 6 5 10 11 10 5 0 7 -5 4 -10 -4 -6 -2 -17 4
-24 9 -10 8 -21 0 -40 -8 -17 -15 -22 -20 -15 -3 6 -12 10 -19 7 -9 -3 -8 -8
4 -20 9 -9 16 -28 16 -42 0 -26 1 -26 53 -20 42 5 63 2 99 -15 26 -11 50 -21
53 -21 15 0 96 42 121 63 64 51 116 59 157 24 35 -29 35 -68 0 -113 -29 -38
-59 -54 -142 -74 -58 -14 -121 -46 -121 -61 0 -5 145 -9 340 -9 l340 0 0 1580
0 1580 -394 0 -394 0 -4 -25 c-3 -14 -1 -28 3 -31 13 -7 11 -44 -2 -44 -5 0
-8 -4 -5 -9 7 -10 -11 -126 -26 -168 -9 -26 -9 -34 5 -47 32 -32 32 -87 -2
-411 -8 -80 -36 -191 -50 -199 -4 -3 -15 21 -25 52 -18 59 -32 82 -48 82 -19
0 -2 -104 25 -158 15 -30 27 -70 27 -89 0 -34 -1 -35 -18 -20 -29 26 -58 20
-102 -19 -22 -20 -44 -34 -47 -30 -4 4 -1 12 7 17 11 7 1 8 -30 4 -25 -4 -49
-11 -55 -17 -6 -6 -3 -7 10 -2 l20 7 -20 -16 c-13 -10 -21 -12 -24 -5 -2 6
-17 -4 -33 -23 -23 -27 -26 -28 -12 -6 17 28 12 49 -7 30 -8 -8 -22 -7 -51 3
-22 8 -62 14 -88 14 -25 0 -50 3 -54 8 -4 4 -11 7 -14 8 -4 0 -14 3 -22 6 -8
4 -30 9 -49 12 -33 6 -33 6 -28 -26 l6 -33 -20 39 c-15 28 -24 35 -32 27 -7
-7 -7 -18 1 -36 7 -14 12 -27 12 -29 0 -3 -36 -9 -134 -23 -21 -3 -41 -1 -45
4 -3 5 -23 17 -44 27 -21 10 -41 24 -43 31 -3 8 -22 24 -41 37 -84 54 -101 67
-163 127 -36 35 -112 94 -169 132 -179 119 -356 160 -532 125 -105 -21 -158
-46 -213 -101 -47 -48 -69 -88 -101 -184 l-21 -64 -82 -4 c-71 -4 -81 -3 -76
11 7 17 58 46 84 46 10 0 31 26 52 65 20 36 32 65 27 65 -27 0 5 78 35 82 11
2 27 15 34 31 13 26 39 40 29 14 -2 -6 1 -17 8 -24 15 -14 75 21 76 45 0 10 2
26 4 37 4 23 -12 48 -37 58 -14 5 -20 -2 -28 -32 -10 -39 -28 -55 -47 -43 -14
10 -24 42 -12 42 5 0 9 6 7 13 -1 6 11 26 27 43 81 84 89 99 58 101 -10 1 -41
4 -70 8 -51 6 -51 5 -89 -38 -26 -30 -38 -54 -39 -78 -1 -19 -5 -42 -10 -53
-5 -11 -3 -21 4 -26 16 -9 26 -80 17 -116 -5 -20 -10 -24 -19 -15 -6 6 -22 11
-35 11 -18 0 -23 -4 -18 -16 8 -20 -11 -54 -29 -54 -9 0 -39 17 -68 37 -28 20
-60 36 -70 35 -10 0 -21 6 -24 14 -5 13 -7 13 -14 2 -7 -10 -9 -9 -9 5 0 9 -4
17 -10 17 -5 0 -10 6 -10 14 0 19 -59 61 -69 50 -13 -16 -32 -84 -27 -93 3 -5
15 -7 26 -4 12 3 20 0 20 -7 0 -7 -6 -10 -14 -7 -11 4 -15 -3 -15 -26 -2 -66
-2 -124 2 -182 2 -33 2 -67 0 -76 -7 -27 -142 -60 -211 -52 l-57 6 26 -34 c30
-40 49 -74 27 -49 -7 9 -25 25 -40 36 -24 19 -33 20 -80 12 -29 -5 -55 -14
-57 -20 -2 -5 -16 3 -31 17 -16 15 -52 35 -82 45 l-53 18 45 0 c25 1 59 5 75
10 38 11 101 5 137 -14 43 -22 52 -18 77 39 28 62 50 89 64 80 6 -3 27 -9 47
-13 35 -6 37 -6 35 22 -1 16 2 31 6 33 4 3 6 13 5 23 -2 13 -13 17 -43 18 -68
1 -77 16 -40 61 23 27 25 55 15 171 -2 20 -17 14 -47 -20 -23 -26 -41 -34
-112 -48 -75 -14 -84 -18 -81 -37 4 -30 -44 -66 -69 -52 -32 17 -34 53 -5 96
29 42 33 63 13 63 -8 0 -20 11 -27 25 -13 25 -65 55 -97 55 -21 1 -55 24 -47
33 10 10 -16 47 -34 48 -10 0 -12 3 -4 6 6 2 10 9 6 14 -3 5 0 9 5 9 6 0 11 7
11 15 0 8 -4 15 -10 15 -5 0 -17 17 -27 38 -10 20 -28 47 -40 58 -29 27 -29
41 0 50 12 4 33 17 46 30 13 13 34 24 47 24 18 0 25 7 30 28 17 80 20 82 133
128 48 20 115 21 137 3 8 -6 16 -10 19 -7 7 7 -7 48 -16 48 -5 0 -9 9 -9 20 0
17 -7 20 -50 20 -28 0 -50 -5 -50 -10 0 -6 -19 -11 -42 -11 -24 -1 -63 -1 -87
-2 -27 0 -46 4 -49 11 -7 21 -76 15 -90 -8 -7 -11 -21 -20 -32 -20 -11 0 -20
-4 -20 -10 0 -11 -30 -13 -54 -4 -9 3 -16 17 -16 30 l0 24 -240 0 -240 0 0
-676z m2275 -94 c51 -11 125 -37 170 -59 78 -39 170 -100 162 -107 -2 -3 -61
5 -129 16 -117 19 -312 29 -324 17 -3 -3 -20 -1 -37 4 -24 7 -59 3 -142 -17
-60 -15 -122 -33 -137 -41 -33 -16 -34 -14 -8 37 32 63 76 106 132 130 99 43
184 48 313 20z m-1815 -206 c0 -8 -4 -12 -10 -9 -5 3 -10 10 -10 16 0 5 5 9
10 9 6 0 10 -7 10 -16z m2305 -4 c3 -5 2 -10 -4 -10 -5 0 -13 5 -16 10 -3 6
-2 10 4 10 5 0 13 -4 16 -10z m-480 -31 c55 -6 135 -13 177 -17 42 -4 80 -11
85 -16 4 -4 -10 -6 -32 -2 -22 3 -62 7 -89 8 -42 2 -50 -1 -62 -22 l-14 -25 6
26 c5 24 2 27 -31 33 -43 8 -41 10 -60 -40 l-15 -39 5 34 5 34 -173 -7 c-95
-3 -177 -3 -181 1 -4 4 17 15 46 24 62 21 184 23 333 8z m-855 -9 c-1 -12 -29
-54 -30 -44 0 15 -60 24 -60 10 0 -6 -4 -5 -9 3 -5 7 -14 10 -20 7 -7 -4 -11
1 -11 12 0 17 7 19 65 18 36 0 65 -3 65 -6z m1090 -40 c16 -3 -81 -30 -107
-30 -36 0 -36 0 -27 25 6 14 17 16 68 12 34 -4 63 -6 66 -7z m-829 -17 c-16
-27 -48 -63 -56 -63 -4 0 -1 7 6 16 12 14 6 16 -61 13 -41 -1 -80 -7 -87 -12
-7 -5 -20 -4 -32 3 -23 12 -27 25 -11 35 14 8 128 22 198 24 48 1 52 -1 43
-16z m549 -1 c0 -4 -13 -20 -30 -35 -33 -32 -38 -47 -15 -47 21 0 19 -16 -2
-25 -10 -4 -50 -9 -89 -12 -61 -5 -79 -2 -130 20 -32 14 -72 30 -89 35 -29 10
-29 10 -5 12 14 1 19 4 13 7 -23 9 -14 18 32 32 51 15 99 10 147 -13 35 -18
66 -20 88 -6 12 8 12 10 1 10 -11 0 -11 3 -1 15 13 15 80 21 80 7z m-1700 -11
c0 -5 -7 -14 -15 -21 -12 -10 -15 -10 -15 2 0 8 3 18 7 21 9 10 23 9 23 -2z
m2089 -7 c17 -4 28 -11 25 -16 -4 -6 6 -21 22 -34 l29 -23 -30 0 c-16 0 -41 8
-55 19 -14 11 -34 20 -45 20 -11 0 -27 5 -35 10 -11 7 -7 10 18 10 20 0 31 4
27 10 -7 12 1 12 44 4z m116 -34 c4 -6 -8 -10 -29 -10 -19 0 -38 5 -41 10 -4
6 8 10 29 10 19 0 38 -4 41 -10z m-1550 -20 c-3 -5 -15 -10 -26 -10 -10 0 -19
-4 -19 -10 0 -5 -11 -10 -25 -10 -14 0 -25 5 -25 10 0 6 -10 11 -22 12 -13 1
6 4 42 8 36 4 69 7 73 8 5 1 5 -2 2 -8z m2531 -33 l17 -32 -29 25 c-16 14 -31
26 -33 27 -1 1 0 7 4 12 9 16 22 5 41 -32z m-2048 11 c2 -10 -6 -17 -23 -20
-19 -4 -25 -1 -25 13 0 30 42 36 48 7z m72 -3 c0 -8 -9 -15 -20 -15 -20 0 -26
11 -13 23 12 13 33 7 33 -8z m1170 0 c0 -8 -9 -15 -20 -15 -11 0 -20 7 -20 15
0 8 9 15 20 15 11 0 20 -7 20 -15z m-1630 -30 c0 -14 7 -25 18 -28 13 -3 11
-7 -12 -16 -16 -6 -31 -10 -33 -8 -2 3 -1 23 3 45 7 43 24 48 24 7z m100 21
c0 -7 -3 -28 -6 -45 -7 -32 -7 -32 -25 -12 -23 24 -25 51 -4 51 8 0 15 5 15
10 0 6 5 10 10 10 6 0 10 -6 10 -14z m1600 -7 c0 -5 -9 -9 -20 -9 -19 0 -26
11 -14 23 8 8 34 -3 34 -14z m-1875 -5 c27 -17 33 -34 13 -34 -13 1 -55 50
-43 50 3 0 17 -7 30 -16z m123 4 c7 -7 12 -25 12 -40 0 -32 -16 -35 -69 -17
l-32 11 33 29 c38 33 40 33 56 17z m2228 -13 c-3 -20 -16 -31 -16 -13 0 13 8
28 16 28 1 0 1 -7 0 -15z m-2146 -5 c0 -5 -2 -10 -4 -10 -3 0 -8 5 -11 10 -3
6 -1 10 4 10 6 0 11 -4 11 -10z m1527 -112 c-3 -7 -5 -2 -5 12 0 14 2 19 5 13
2 -7 2 -19 0 -25z m940 -10 c-3 -8 -6 -5 -6 6 -1 11 2 17 5 13 3 -3 4 -12 1
-19z m-1947 -17 c0 -5 -7 -11 -14 -14 -10 -4 -13 -1 -9 9 6 15 23 19 23 5z
m1907 -23 c-3 -7 -5 -2 -5 12 0 14 2 19 5 13 2 -7 2 -19 0 -25z m-2483 0 c-4
-6 1 -17 11 -25 16 -11 17 -13 3 -13 -9 0 -20 5 -23 10 -7 12 0 40 10 40 4 0
3 -5 -1 -12z m2159 5 c-13 -2 -33 -2 -45 0 -13 2 -3 4 22 4 25 0 35 -2 23 -4z
m-1853 -47 c0 -3 -4 -8 -10 -11 -5 -3 -10 -1 -10 4 0 6 5 11 10 11 6 0 10 -2
10 -4z m6 -53 c-11 -11 -19 6 -11 24 8 17 8 17 12 0 3 -10 2 -21 -1 -24z m69
17 c0 -8 -10 -16 -22 -18 -18 -3 -23 2 -23 18 0 16 5 21 23 18 12 -2 22 -10
22 -18z m80 -11 c0 -22 -37 -16 -46 7 -7 20 -5 21 19 15 15 -4 27 -14 27 -22z
m1293 7 c3 -13 -1 -17 -14 -14 -11 2 -20 11 -22 22 -3 13 1 17 14 14 11 -2 20
-11 22 -22z m-1478 5 c0 -5 -7 -11 -15 -15 -9 -3 -15 0 -15 9 0 8 7 15 15 15
8 0 15 -4 15 -9z m1388 -14 c2 -10 -3 -17 -11 -17 -18 0 -39 24 -30 34 12 12
38 2 41 -17z m50 -310 c2 -12 -3 -17 -17 -17 -12 0 -21 6 -21 13 0 31 32 34
38 4z m-1308 -98 c0 -14 -5 -19 -17 -17 -26 5 -29 38 -4 38 15 0 21 -6 21 -21z
m-1535 -98 c3 -5 1 -12 -4 -16 -14 -8 -62 5 -55 16 7 12 51 12 59 0z m311 -74
c4 -4 16 -7 27 -7 20 0 20 0 1 -21 -15 -16 -26 -19 -54 -15 -101 18 -108 17
-112 -6 -2 -13 -11 -24 -22 -26 -15 -3 -18 0 -12 21 5 21 2 25 -19 29 -13 3
-28 1 -33 -4 -5 -5 -14 -3 -21 6 -11 13 -5 17 41 30 29 8 62 16 73 18 24 4
121 -14 131 -25z m1094 -12 c13 -15 35 -11 25 6 -4 5 -1 9 4 9 6 0 11 -4 11
-8 0 -12 61 -32 74 -25 6 4 4 -2 -4 -12 -13 -16 -13 -18 0 -13 18 6 79 -52 73
-69 -3 -7 0 -13 7 -13 13 0 40 -24 40 -36 0 -4 8 -13 18 -20 16 -13 16 -14 -3
-7 -31 11 125 -136 168 -158 22 -11 37 -23 34 -25 -23 -23 -375 251 -451 350
-26 34 -22 53 4 21z m-990 -115 c0 -5 -2 -10 -4 -10 -3 0 -8 5 -11 10 -3 6 -1
10 4 10 6 0 11 -4 11 -10z m131 -13 c-10 -9 -11 -8 -5 6 3 10 9 15 12 12 3 -3
0 -11 -7 -18z m-306 -47 c3 -5 2 -10 -4 -10 -5 0 -13 5 -16 10 -3 6 -2 10 4
10 5 0 13 -4 16 -10z m962 -22 c-3 -7 -5 -2 -5 12 0 14 2 19 5 13 2 -7 2 -19
0 -25z m-27 -28 c0 -5 -10 -10 -22 -9 -22 0 -22 1 -3 9 11 5 21 9 23 9 1 1 2
-3 2 -9z m-406 -125 c-4 -8 -11 -15 -16 -15 -6 0 -5 6 2 15 7 8 14 15 16 15 2
0 1 -7 -2 -15z m66 -2 c0 -7 -7 -10 -17 -6 -12 5 -15 2 -10 -9 4 -12 1 -14
-13 -11 -28 7 -14 43 16 41 13 -1 24 -8 24 -15z m226 -27 c-5 -20 -3 -23 14
-19 11 3 31 -4 46 -16 l27 -21 -46 0 c-36 0 -49 5 -62 23 -14 20 -14 22 0 25
8 2 15 10 15 18 0 8 3 14 6 14 3 0 3 -11 0 -24z m192 13 c-8 -6 0 -9 25 -9 20
0 46 -6 58 -12 17 -11 22 -10 33 4 7 10 16 15 20 11 3 -3 83 -7 177 -8 112 -2
174 -6 182 -14 6 -6 19 -11 29 -11 10 0 18 -6 18 -12 0 -17 -138 -22 -157 -7
-10 9 -13 7 -13 -9 0 -27 -26 -35 -59 -18 -26 14 -29 13 -54 -10 -15 -14 -27
-29 -27 -34 0 -20 -29 -9 -49 18 -18 24 -22 26 -41 14 -12 -7 -25 -11 -28 -8
-3 3 0 6 6 6 22 0 12 15 -20 35 -18 10 -37 25 -41 32 -5 8 -13 10 -20 6 -7 -5
-19 -8 -27 -9 -32 -2 -80 -17 -80 -25 0 -5 -8 -9 -17 -9 -14 0 -15 2 -4 9 11
7 11 10 0 17 -10 6 -5 11 16 20 l30 13 -27 1 c-55 0 -34 15 24 16 37 1 55 -2
46 -7z m-368 -9 c0 -5 -4 -10 -10 -10 -5 0 -10 5 -10 10 0 6 5 10 10 10 6 0
10 -4 10 -10z m110 0 c0 -5 -5 -10 -11 -10 -5 0 -7 5 -4 10 3 6 8 10 11 10 2
0 4 -4 4 -10z m-950 -20 c0 -5 -2 -10 -4 -10 -3 0 -8 5 -11 10 -3 6 -1 10 4
10 6 0 11 -4 11 -10z m2310 -11 c11 -19 10 -20 -9 -10 -27 15 -36 31 -17 31 8
0 20 -9 26 -21z m70 11 c0 -5 -4 -10 -10 -10 -5 0 -10 5 -10 10 0 6 5 10 10
10 6 0 10 -4 10 -10z m-345 -10 c3 -5 1 -10 -4 -10 -6 0 -11 5 -11 10 0 6 2
10 4 10 3 0 8 -4 11 -10z m185 -3 c0 -5 6 -4 14 2 17 14 38 -8 42 -45 4 -33
-44 -59 -89 -47 -18 4 -38 8 -44 8 -7 0 -13 4 -13 8 0 4 0 12 0 18 0 7 17 10
45 7 25 -2 45 1 45 6 0 6 7 1 15 -10 13 -18 14 -17 12 13 -1 18 -6 32 -12 32
-28 -3 -55 2 -55 10 0 6 9 9 20 8 11 -1 20 -5 20 -10z m-355 -18 c-22 -4 -53
-4 -70 -1 -26 6 -22 8 25 12 67 6 100 -2 45 -11z m625 17 c0 -3 -4 -8 -10 -11
-5 -3 -10 -1 -10 4 0 6 5 11 10 11 6 0 10 -2 10 -4z m218 -13 c-10 -2 -28 -2
-40 0 -13 2 -5 4 17 4 22 1 32 -1 23 -4z m-1908 -34 c0 -5 -7 -9 -15 -9 -15 0
-20 12 -9 23 8 8 24 -1 24 -14z m-743 4 c-13 -12 15 -33 45 -33 16 0 46 9 68
20 54 27 173 28 233 1 57 -26 144 -33 152 -13 5 13 9 11 26 -6 11 -12 31 -22
44 -22 18 0 25 -5 25 -20 0 -12 10 -25 25 -32 21 -9 30 -7 65 16 26 17 53 26
78 26 26 0 45 7 57 20 23 25 35 25 35 0 0 -12 -12 -26 -30 -35 -37 -19 -38
-31 -2 -39 15 -3 36 -13 46 -21 20 -15 20 -15 0 -30 -15 -12 -48 -15 -154 -14
-74 0 -144 0 -155 -1 -37 -3 -146 18 -169 34 -13 8 -42 15 -64 14 -29 0 -50 7
-75 26 -31 24 -40 26 -89 20 -37 -4 -58 -3 -62 5 -4 6 -20 11 -36 11 -16 0
-32 5 -35 10 -3 6 -17 10 -30 10 -13 0 -26 4 -30 10 -7 11 16 50 29 50 5 0 6
-3 3 -7z m2023 -24 c0 -5 -4 -9 -10 -9 -5 0 -10 7 -10 16 0 8 5 12 10 9 6 -3
10 -10 10 -16z m-49 -67 l22 -19 -31 -6 c-46 -9 -64 0 -49 24 15 24 29 24 58
1z m246 -23 c-3 -10 -1 -19 4 -19 5 0 9 5 9 10 0 6 9 10 20 10 11 0 23 7 26
15 7 16 49 21 58 6 4 -5 -7 -22 -24 -38 -16 -15 -30 -34 -30 -40 0 -17 -27
-17 -33 0 -3 7 -6 6 -6 -5 -1 -11 -11 -18 -28 -20 -16 -2 -28 -8 -28 -14 0
-17 -30 -42 -59 -50 -30 -7 -39 -18 -44 -54 -2 -13 -5 -26 -7 -28 -8 -8 -75
23 -75 35 0 7 -4 13 -10 13 -14 0 -12 37 2 47 7 4 33 8 58 8 36 1 52 8 79 33
30 29 33 37 28 72 -4 31 -1 42 11 49 24 13 55 -6 49 -30z m-802 -33 c-41 -54
-94 -55 -64 0 8 16 21 24 40 24 16 0 30 7 34 18 5 11 9 13 12 5 2 -7 -7 -28
-22 -47z m1104 51 c-2 -1 -11 -8 -20 -15 -14 -10 -18 -10 -23 3 -4 11 1 15 21
15 14 0 24 -1 22 -3z m141 -22 c0 -12 -19 -12 -23 0 -4 9 -1 12 9 8 7 -3 14
-7 14 -8z m-2546 -67 c-3 -5 -16 -8 -30 -8 -31 0 -32 25 -2 58 l23 24 7 -34
c3 -18 4 -36 2 -40z m1670 23 c9 -17 34 -37 61 -50 34 -16 45 -27 45 -44 -1
-63 -78 -79 -101 -20 -11 31 -37 40 -52 19 -8 -11 -34 -18 -78 -22 -59 -6 -68
-4 -86 15 -18 19 -24 20 -47 10 -22 -11 -29 -10 -43 4 -37 37 36 98 76 64 35
-29 104 -16 116 22 3 11 16 22 28 24 54 10 67 7 81 -22z m209 9 c-7 -27 -23
-36 -34 -19 -15 24 -10 39 15 39 19 0 23 -4 19 -20z m501 1 c-21 -20 -34 -18
-34 5 0 9 10 14 27 14 26 0 26 0 7 -19z m-79 -51 c3 -5 1 -10 -4 -10 -6 0 -11
5 -11 10 0 6 2 10 4 10 3 0 8 -4 11 -10z m455 -45 c0 -10 -71 -34 -85 -29 -16
7 -19 17 -8 27 7 8 93 10 93 2z m300 -5 c0 -6 11 -15 24 -20 23 -9 24 -10 12
-52 -11 -36 -18 -44 -40 -46 -30 -4 -66 22 -66 46 0 8 11 30 26 49 25 33 44
43 44 23z m-839 -99 c15 -14 37 -21 63 -22 23 -1 33 -3 24 -6 -22 -5 -24 -33
-3 -33 8 0 15 -5 15 -11 0 -7 -9 -9 -22 -5 -13 3 -38 6 -55 6 -26 0 -33 4 -33
20 0 22 -15 27 -26 9 -3 -6 -1 -14 5 -18 18 -12 -37 -32 -66 -25 -19 5 -24 3
-21 -6 6 -19 -35 -60 -60 -60 -37 0 -52 11 -52 40 0 39 25 62 63 58 26 -3 32
1 38 25 13 47 29 60 70 54 21 -3 48 -14 60 -26z m523 -77 c9 -3 16 -12 16 -18
0 -16 -45 -40 -59 -32 -17 11 -13 44 7 49 9 3 18 5 19 6 1 0 8 -2 17 -5z m-70
-13 c3 -5 -1 -11 -9 -15 -9 -3 -15 -18 -15 -40 0 -25 -8 -42 -30 -63 -16 -15
-30 -32 -30 -36 0 -14 -28 -37 -44 -37 -27 0 -16 74 15 100 3 3 8 13 12 23 3
9 13 17 22 17 8 0 15 7 15 16 0 29 51 57 64 35z"/>
<path d="M2356 3114 c-3 -26 -6 -68 -6 -95 0 -26 -4 -51 -10 -54 -5 -3 -10
-10 -10 -16 0 -5 5 -9 10 -9 6 0 10 6 10 14 0 8 5 16 11 18 5 2 12 33 13 68 2
36 6 77 11 93 5 20 4 27 -8 27 -9 0 -16 -15 -21 -46z"/>
<path d="M2430 3139 c6 -10 15 -19 20 -19 6 0 10 -12 11 -27 0 -23 2 -25 8 -9
4 11 16 23 27 27 17 7 17 8 2 8 -11 1 -18 9 -18 19 0 14 -8 19 -30 20 -27 1
-29 -1 -20 -19z"/>
<path d="M2800 3151 c0 -5 17 -18 38 -28 26 -14 38 -27 40 -46 4 -31 5 -31 30
-16 12 7 17 20 15 33 -3 12 2 27 9 34 19 15 58 4 51 -14 -3 -9 2 -14 14 -14
10 0 25 -6 32 -12 10 -11 10 -8 1 12 -5 14 -13 33 -16 43 -5 14 -18 17 -66 17
l-60 0 6 -30 c3 -16 2 -30 -2 -30 -12 1 -52 38 -52 49 0 6 -9 11 -20 11 -11 0
-20 -4 -20 -9z"/>
<path d="M3052 3148 c6 -18 28 -21 28 -4 0 9 -7 16 -16 16 -9 0 -14 -5 -12
-12z"/>
<path d="M3530 3145 c0 -9 7 -29 15 -45 9 -17 15 -32 15 -35 -1 -39 2 -45 24
-45 26 0 51 -23 42 -39 -3 -5 3 -20 15 -32 16 -19 19 -20 15 -6 -5 15 -2 17
14 12 15 -5 22 -1 29 17 7 18 3 28 -21 50 -17 16 -36 28 -44 28 -8 0 -14 7
-14 16 0 9 5 12 13 8 6 -4 -10 14 -38 39 -54 50 -65 56 -65 32z"/>
<path d="M3840 3154 c0 -7 40 -44 47 -44 2 0 -4 11 -14 25 -17 23 -33 32 -33
19z"/>
<path d="M1725 3140 c-9 -15 -1 -23 21 -18 15 3 16 4 1 16 -11 9 -17 10 -22 2z"/>
<path d="M3265 3090 c-3 -5 3 -10 14 -10 12 0 21 5 21 10 0 6 -6 10 -14 10 -8
0 -18 -4 -21 -10z"/>
<path d="M2515 3080 c4 -6 11 -8 16 -5 14 9 11 15 -7 15 -8 0 -12 -5 -9 -10z"/>
<path d="M2990 3086 c0 -2 7 -9 15 -16 13 -11 14 -10 9 4 -5 14 -24 23 -24 12z"/>
<path d="M3510 3070 c0 -5 7 -10 15 -10 8 0 15 5 15 10 0 6 -7 10 -15 10 -8 0
-15 -4 -15 -10z"/>
<path d="M1080 3060 c0 -5 5 -10 10 -10 6 0 10 5 10 10 0 6 -4 10 -10 10 -5 0
-10 -4 -10 -10z"/>
<path d="M1110 3049 c0 -5 9 -9 20 -9 11 0 20 2 20 4 0 2 -9 6 -20 9 -11 3
-20 1 -20 -4z"/>
<path d="M2450 3050 c0 -5 5 -10 10 -10 6 0 10 5 10 10 0 6 -4 10 -10 10 -5 0
-10 -4 -10 -10z"/>
<path d="M3308 3038 c13 -6 21 -16 19 -22 -3 -6 7 -12 22 -12 14 -1 20 1 14 3
-20 7 -15 23 7 23 11 0 20 5 20 10 0 6 -24 10 -52 9 -46 0 -50 -2 -30 -11z"/>
<path d="M3400 3030 c0 -5 7 -10 16 -10 8 0 12 5 9 10 -3 6 -10 10 -16 10 -5
0 -9 -4 -9 -10z"/>
<path d="M3090 3010 c14 -11 29 -20 33 -20 5 0 5 -5 1 -12 -5 -7 -3 -8 5 -4 7
5 10 14 7 22 -6 16 17 19 44 4 13 -7 19 -6 24 6 3 8 2 12 -3 9 -5 -3 -12 -1
-15 4 -6 10 -40 8 -68 -4 -11 -4 -18 -3 -18 4 0 6 -8 11 -17 11 -15 0 -13 -4
7 -20z"/>
<path d="M2453 2985 c0 -22 2 -30 4 -17 2 12 2 30 0 40 -3 9 -5 -1 -4 -23z"/>
<path d="M2522 3004 c10 -10 20 -15 24 -12 3 4 -5 12 -18 18 -22 12 -22 12 -6
-6z"/>
<path d="M3458 3013 c7 -3 16 -2 19 1 4 3 -2 6 -13 5 -11 0 -14 -3 -6 -6z"/>
<path d="M3210 2986 c0 -8 9 -18 21 -21 31 -10 33 0 4 19 -21 14 -25 14 -25 2z"/>
<path d="M3255 2990 c3 -5 14 -10 24 -10 9 0 22 -5 28 -11 6 -6 16 -8 23 -4 8
5 6 11 -7 21 -21 16 -77 19 -68 4z"/>
<path d="M3435 2980 c-3 -5 1 -10 9 -10 9 0 16 5 16 10 0 6 -4 10 -9 10 -6 0
-13 -4 -16 -10z"/>
<path d="M1730 2961 c-22 -42 1 -97 36 -84 13 5 50 63 42 66 -2 1 -17 10 -35
20 -31 17 -32 17 -43 -2z"/>
<path d="M3490 2961 c0 -6 5 -13 10 -16 6 -3 10 1 10 9 0 9 -4 16 -10 16 -5 0
-10 -4 -10 -9z"/>
<path d="M3100 2950 c0 -5 7 -10 15 -10 8 0 15 5 15 10 0 6 -7 10 -15 10 -8 0
-15 -4 -15 -10z"/>
<path d="M753 2916 c10 -8 37 -17 61 -20 29 -5 56 -18 82 -41 22 -20 46 -37
55 -40 9 -3 25 -22 35 -43 10 -20 22 -38 27 -40 4 -2 7 -10 7 -18 0 -8 5 -14
11 -14 5 0 7 -5 3 -11 -4 -7 2 -9 17 -7 20 2 25 11 32 52 7 42 5 52 -12 70
-11 11 -24 33 -30 48 -8 21 -19 28 -48 33 -62 9 -146 27 -177 36 -16 5 -41 9
-55 9 -24 -1 -25 -2 -8 -14z"/>
<path d="M2440 2871 c0 -6 5 -13 10 -16 6 -3 10 1 10 9 0 9 -4 16 -10 16 -5 0
-10 -4 -10 -9z"/>
<path d="M1748 2862 c-20 -2 -28 -9 -28 -24 0 -14 -5 -18 -15 -14 -22 8 -21
-67 2 -85 15 -12 16 -12 10 3 -4 12 0 19 14 23 10 4 19 11 19 16 0 6 9 7 20 4
16 -5 20 -2 20 14 0 12 -6 21 -12 21 -9 0 -10 2 -2 8 21 13 1 37 -28 34z"/>
<path d="M2410 2860 c0 -8 5 -22 10 -30 9 -13 10 -13 10 0 0 8 -5 22 -10 30
-9 13 -10 13 -10 0z"/>
<path d="M2310 2839 c0 -5 5 -7 10 -4 6 3 10 8 10 11 0 2 -4 4 -10 4 -5 0 -10
-5 -10 -11z"/>
<path d="M2280 2799 c0 -5 5 -7 10 -4 6 3 10 8 10 11 0 2 -4 4 -10 4 -5 0 -10
-5 -10 -11z"/>
<path d="M2487 2723 c3 -26 14 -65 24 -85 11 -21 19 -44 19 -53 0 -8 4 -15 9
-15 5 0 14 -14 21 -30 16 -38 48 -80 61 -80 5 0 0 13 -12 29 -12 16 -21 41
-21 54 0 16 -5 24 -13 21 -18 -7 -66 95 -69 145 -1 23 -7 46 -13 52 -8 8 -9
-3 -6 -38z"/>
<path d="M2635 2670 c3 -5 8 -10 11 -10 2 0 4 5 4 10 0 6 -5 10 -11 10 -5 0
-7 -4 -4 -10z"/>
<path d="M1060 2650 c0 -5 5 -10 10 -10 6 0 10 5 10 10 0 6 -4 10 -10 10 -5 0
-10 -4 -10 -10z"/>
<path d="M2645 2411 c16 -31 35 -49 35 -33 0 17 -25 57 -38 60 -9 2 -8 -6 3
-27z"/>
<path d="M2699 2333 c11 -17 21 -35 21 -40 0 -4 12 -16 28 -25 15 -10 38 -25
52 -34 14 -9 11 -5 -7 10 -18 15 -51 48 -74 74 -23 27 -32 33 -20 15z"/>
<path d="M2940 2080 c0 -5 5 -10 10 -10 6 0 10 5 10 10 0 6 -4 10 -10 10 -5 0
-10 -4 -10 -10z"/>
<path d="M3020 2076 c0 -5 34 -15 103 -30 19 -5 27 -2 27 8 0 7 -10 16 -22 19
-33 7 -108 9 -108 3z"/>
<path d="M308 1909 c-20 -11 -26 -93 -8 -104 5 -3 24 10 41 29 17 20 35 33 40
30 5 -3 9 1 9 8 0 8 3 9 8 3 9 -13 52 -33 77 -37 14 -2 21 3 23 19 3 18 -4 23
-48 32 -28 6 -62 11 -75 11 -14 0 -25 5 -25 10 0 13 -20 12 -42 -1z"/>
<path d="M137 1871 c3 -23 1 -41 -6 -45 -6 -4 -11 -32 -10 -64 1 -40 3 -50 8
-32 l7 25 8 -25 c7 -23 9 -20 21 26 7 28 15 56 19 62 8 13 -30 92 -43 92 -5 0
-7 -17 -4 -39z"/>
<path d="M246 1343 c9 -39 19 -47 43 -34 18 10 19 15 9 36 -7 16 -19 25 -35
25 -20 0 -23 -3 -17 -27z"/>
<path d="M422 1348 c-13 -13 -14 -68 -3 -108 7 -25 14 -26 69 -15 30 7 32 55
2 55 -19 0 -43 36 -34 51 2 4 -2 12 -9 18 -10 8 -17 7 -25 -1z"/>
<path d="M611 1326 c-8 -10 -9 -16 -1 -21 5 -3 13 1 16 10 9 22 -1 29 -15 11z"/>
<path d="M525 1229 c-4 -6 -5 -13 -2 -16 7 -7 27 6 27 18 0 12 -17 12 -25 -2z"/>
</g>
</svg>
